<svg xmlns="http://www.w3.org/2000/svg" width="1064" height="461" viewBox="0 0 1064 461">
  <defs>
    <style>
      .cls-1 {
        fill: #191919;
        fill-rule: evenodd;
      }
    </style>
  </defs>
  <path class="cls-1" d="M186.747,661.623c1.535,0.048,2.169-.1,1.407-0.329a6.418,6.418,0,0,0-2.792-.088C184.587,661.386,185.211,661.574,186.747,661.623Zm-5.019.352a1.579,1.579,0,0,0-1.528-.113c-0.644.24-.461,0.439,0.467,0.508C181.507,662.432,181.985,662.254,181.728,661.975ZM15.014,741.142a0.8,0.8,0,1,0,.823-0.789A0.811,0.811,0,0,0,15.014,741.142Zm503.9,8.056a11.123,11.123,0,0,0-3.59-.114c-0.994.163-.191,0.347,1.784,0.41S519.9,749.423,518.917,749.2Zm70.288-.206c-0.774.181-.151,0.368,1.385,0.417s2.169-.1,1.407-0.328A6.433,6.433,0,0,0,589.205,748.992Zm11.944,1.181a11.13,11.13,0,0,0-3.591-.114c-0.993.162-.19,0.347,1.785,0.41S602.13,750.4,601.149,750.173Zm-262.714,2.97c-6.747-.14-9.7.015-7.532,0.392,3.863,0.672,17.6.834,18.245,0.216C349.365,753.543,344.544,753.269,338.435,753.143Zm186.89-4.544c-0.775.18-.151,0.368,1.385,0.417s2.169-.1,1.407-0.329A6.418,6.418,0,0,0,525.325,748.6Zm18.39-.205a4.479,4.479,0,0,0-2.393-.106c-0.782.182-.346,0.378,0.97,0.436S544.248,748.634,543.715,748.394Zm320.808-90.753c-5.273.076-18.389,0.026-29.147-.112s-22.437-.177-25.953-0.085-14.122.16-23.565,0.152c-17.389-.014-22.583.072-31.962,0.529-2.86.139-11.2,0.44-18.526,0.67s-13.809.568-14.4,0.753-7.906.512-16.259,0.725-18.608.636-22.79,0.939-13.181.748-20,.988-17.072.654-22.79,0.92-21.36.529-34.759,0.584-26.52.15-29.157,0.21-20.959-.181-40.715-0.534c-50.247-.9-71.869-0.458-95.1,1.938-4.847.5-18.176,1.553-29.621,2.34s-21.352,1.565-22.016,1.729-4.265.406-8,.538-14.352.539-23.588,0.9-20.209.752-24.385,0.86-13.169.37-19.984,0.581-16.854.077-22.31-.3-10.127-.376-10.382,0a5.073,5.073,0,0,1-2.276,1.2c-1.386.394-1.8,0.192-1.771-.856,0.033-1.081-.426-1.275-2.169-0.913-1.216.253-11.012,0.364-21.771,0.248s-22.98-.029-27.16.194-13.341.119-20.358-.233-18.593-.835-25.724-1.074-12.955-.758-12.943-1.153-7.762-.83-17.718-0.971c-15.42-.218-17.582-0.4-16.53-1.382a11.27,11.27,0,0,1,4.027-1.843c1.549-.392,2.235-0.764,1.525-0.826a40.784,40.784,0,0,0-7.465,1.727c-5.265,1.572-7.665,1.8-16.321,1.525-18.788-.587-66.887.9-67.661,2.091-2.464,3.792-3.551,4.865-6.253,6.165-3.665,1.765-3.878,2.493-1.814,6.2,1.809,3.25,3.017,3.975,9.059,5.434a30.547,30.547,0,0,1,6.324,2.125c1,0.625,6.442,1.132,15.062,1.4,10.658,0.338,13.564.663,13.825,1.545s-0.4.979-3.139,0.464c-2.517-.474-3.148-0.41-2.3.234a7.7,7.7,0,0,0,3.6.978,5.671,5.671,0,0,1,3.271,1c0.526,0.572,5.345,1.063,12.948,1.32,9.98,0.338,12.029.606,11.652,1.524-0.521,1.265,1.161,1.566,2.354.421,0.434-.415,5.281-0.841,10.771-0.946,7.639-.146,9.7.022,8.757,0.714s-0.258.82,3.109,0.526c5.012-.439,20.805.982,20.778,1.869-0.01.33-4.067,0.78-9.016,1-9.429.421-12.961,0.424-31.538,0.033-11.265-.238-11.363-0.224-11.229,1.591l0.134,1.831-25.973.552c-29.156.619-39.444,1.609-43.445,4.182-1.461.939-2.045,1.53-1.3,1.313,6.117-1.779,15.131-2.869,27.1-3.278l14.79-.5c13.289-.451,55.891,1.33,62.649,2.619,6.27,1.195,10.821,1.65,20.889,2.089l6.2,0.271-0.4,3.044c-0.347,2.678-.674,3.064-2.715,3.209a54.565,54.565,0,0,1-9.225-1.192c-4.782-.939-7.168-1.1-7.761-0.535-0.521.5-4.605,0.626-10.435,0.324-6.278-.326-9.587-0.2-9.6.358a1.243,1.243,0,0,0,1.37.9c0.768,0.027,10.681.433,22.03,0.9l20.635,0.852,1.868,3.933c1.67,3.517,2.3,4.07,5.936,5.212,4.074,1.28,17.415,2.612,38.332,3.828,13.6,0.79,21.277,1.9,21.634,3.127,0.177,0.605-2.145,1.036-6.776,1.258-8.609.414-29.006-.516-28.5-1.3s-3.337-1.589-4.155-.877c-1.2,1.042-14.12,1.868-24.248,1.55-5.485-.172-15.73-0.084-22.767.2s-24.474.488-38.749,0.465-26.943.042-28.151,0.143c-3.52.3-3.407,1.035,0.284,1.837,4.846,1.054,43.39,1.931,49.54,1.127a101.291,101.291,0,0,1,13.042-.413,102.5,102.5,0,0,0,10.729-.1c5.855-.736,51.932.254,52.91,1.136,1.051,0.948,16.628,1.869,21.491,1.271,2.8-.344,3-0.227,2.944,1.674-0.034,1.124-.332,2.065-0.662,2.09-4.087.313-11.572,0.322-31.76,0.039-23.416-.328-28.225-0.065-25.818,1.412,1.128,0.693,14.737,2.673,22.891,3.332h0c8.82,0.712,58.155,2.126,57.892,1.659-0.15-.265,7.144-0.247,16.207.04,24.822,0.786,45.266.442,47.882-.806,2.47-1.178,21.223-2.56,39.808-2.933,3.516-.071,12.151-0.383,19.188-0.693s13.334-.528,13.991-0.483,5.521-.308,10.806-0.784c16-1.439,29.3-2.664,35.64-3.284,3.3-.323,9.6-0.68,14-0.793s13.035-.564,19.2-1c16.893-1.2,34.915-1.287,84.27-.4,4.555,0.081,22,2.759,24.79,3.8,2.036,0.764,6.714,1.4,11.623,1.576,4.519,0.164,8.5.49,8.849,0.725a40.511,40.511,0,0,0,6.887,1.086c3.44,0.363,6.438.934,6.664,1.271,0.648,0.966,4.663,2.751,6.3,2.8a1.935,1.935,0,0,1,1.776,1.015c0.217,0.74,3,.833,11.835.395,10.51-.521,42.045-0.885,45.891-0.53,9.66,0.891,25.039,3.262,23.45,3.614-1.1.245-7.932,0.479-15.17,0.519s-13.356.28-13.594,0.532c-0.636.673,31.428,0.568,37.521-.123,2.865-.324,9.166-0.686,14-0.8,9.868-.239,23.473-1.052,32.237-1.925a99.815,99.815,0,0,1,10.73-.428,78.919,78.919,0,0,0,10.165-.5c2.9-.363,7.622-0.956,10.488-1.316s8.813-.907,13.215-1.212,10.348-.835,13.213-1.176,8.992-.879,13.614-1.2,10.389-.871,12.815-1.231,6.753-.772,9.612-0.915,12.038-.587,20.4-0.988,17.362-1.021,20.008-1.377,9.664-.677,15.595-0.712c14.437-.086,22.381-0.6,22.406-1.446,0.042-1.373,4.574-2.827,10.082-3.233,3.082-.228,7.208-0.528,9.169-0.668,3.795-.271,5.484-0.946,2.6-1.037-0.95-.03-1.717-0.421-1.7-0.869s1.461-.769,3.217-0.714c2.238,0.071,3.2-.247,3.227-1.065a2.386,2.386,0,0,1,1.848-1.682,5.04,5.04,0,0,0,2.315-1.259c0.277-.41,4.424-0.991,9.216-1.291s9.085-.838,9.54-1.2,4.429-.955,8.833-1.331c12.155-1.038,16.655-1.95,18.735-3.8,1.51-1.346,3.55-1.807,10.05-2.269,6.31-.449,8.11-0.842,7.94-1.734a8.354,8.354,0,0,1,.31-3.024c0.45-1.621,1.02-1.857,4.29-1.769,5.33,0.141,9.66-.888,11.78-2.8a6.525,6.525,0,0,1,3.85-1.577c2.68,0.085,7.1-1.364,7.13-2.34,0.03-1.252,5.26-2.932,7.25-2.333s4.04-1.283,4.11-3.768c0.05-1.536-2.96-2.782-4.29-1.78-1.17.875-13.15,1.323-13.61,0.508-0.2-.358,1.1-2.173,2.89-4.033,3.52-3.66,3.69-5.711.29-3.59-2.34,1.46-5.24,1.674-23.77,1.752-11.31.047-12.63-.082-11.71-1.146a6.7,6.7,0,0,1,3.11-1.66c1.14-.254,1.93-0.622,1.75-0.818s-1.69-.018-3.36.4c-3.5.868-4.9,0.048-5.4-3.165-0.59-3.782,1.6-5.12,9.57-5.845,3.96-.36,7.84-0.977,8.63-1.37,1.64-.827,1.92-2.259.47-2.344-1.88-.108,2.16-2.351,4.11-2.289,1.63,0.052,1.79-.136.98-1.191a5.148,5.148,0,0,0-3.45-1.341c-4.59-.162-8.16-1.219-8.98-2.658-2.26-3.968,2.72-9.318,10.01-10.753l4.06-.8-2.58-1.014a18.855,18.855,0,0,1-4.52-2.66c-1.67-1.432-2.94-1.641-9.69-1.6-19.936.12-30.059,0.438-38.559,1.211-5.176.471-25.47,0.7-46.337,0.526C895.552,657.419,881.313,657.4,864.523,657.641Zm-741.438,48.9c-7.222-.848-14.834-1.66-16.916-1.805s-3.775-.609-3.762-1.03c0.034-1.124,38.122,2.12,50.185,4.274C160.281,709.354,137.61,708.249,123.085,706.542Zm34.516-5.713c-1.6.984-4.021,0.908-3.989-.127,0.013-.448,1.191-0.772,2.617-0.719C158.2,700.054,158.528,700.258,157.6,700.829Zm135.021,5.324a13.943,13.943,0,0,1,3.989.137h0c0.975,0.224-.022.347-2.215,0.271S291.4,706.3,292.622,706.153Zm-58.6,40.3c-1.861-.059-1.932-0.18-0.765-1.3,1.273-1.222,2.885-.882,2.84.6C236.087,746.172,235.153,746.487,234.025,746.452Zm45.6-.62c-33.68.232-40.772-.17-42.851-2.429-1.344-1.459,68.951-1.058,71.118.406C309.049,744.591,293,745.739,279.624,745.832ZM362.3,706.35c-0.627.6-4.267,0.688-23.99,0.566h0c-7.465-.046-18.966-0.063-25.555-0.036-6.736.027-11.075-.217-9.911-0.558,1.138-.333,11.753-0.751,23.588-0.93s24.692-.48,28.57-0.67C361.443,704.407,363.782,704.929,362.3,706.35Zm14.086-.219c-0.813-.026-3.643.115-6.288,0.313-3.211.24-4.985,0.048-5.338-.577-0.34-.6.271-0.949,1.716-0.972,1.235-.02,4.313-0.092,6.841-0.161,2.6-.07,4.586.217,4.572,0.66S377.2,706.157,376.387,706.131Zm10.68-.477c-3.593.813-7.608,0.686-7.58-.24,0.014-.466,2.154-0.705,5.008-0.56C388.462,705.057,388.987,705.22,387.067,705.654Zm58.9-6.457c-0.031,1-5.855,1.462-7.782.614-0.9-.4-0.217-0.6,1.925-0.57a18.473,18.473,0,0,0,4.6-.406c0.7-.25,1.266-0.087,1.252.362h0Zm3.591,0.081c-1.755-.065-2.374-0.251-1.375-0.415a8.556,8.556,0,0,1,3.191.118h0C452.127,699.209,451.311,699.343,449.555,699.278Zm57.747-1.461c-2.3-.1-12.644.2-22.981,0.659h0c-10.337.463-21,.962-23.693,1.11-2.836.156-5.094-.075-5.361-0.549-0.419-.743,9.232-2.055,18.331-2.492,28.084-1.35,37.971-1.149,37.913.77C511.5,697.691,509.605,697.918,507.3,697.817Zm28.778-.133c-7.592.077-15.664,0.253-17.938,0.391-4.361.264-6.6-1.082-2.816-1.7,4.565-.74,35.57-0.4,35.061.385C550.11,697.193,543.671,697.607,536.08,697.684Zm81.252-.38c-1.316-.058-1.752-0.254-0.97-0.436a4.479,4.479,0,0,1,2.393.106C619.289,697.214,618.648,697.362,617.332,697.3Zm137.245,0.462h0c-0.453.436-6.729,0.774-13.946,0.753-15.117-.044-13.655-0.983,3.128-2.009C754.086,695.879,756.28,696.133,754.577,697.766ZM69.735,701.305c-0.014.448,0.715,0.838,1.618,0.867s1.432-.322,1.175-0.778a2.1,2.1,0,0,0-1.618-.867A1.029,1.029,0,0,0,69.735,701.305Zm3.645-7.755a4.479,4.479,0,0,0-2.393-.106c-0.783.182-.346,0.378,0.97,0.436S73.914,693.79,73.38,693.55Zm-55.424-18.9c1.717,0.762,2.059.694,2.552-.5,0.257-.626,2.387-1.432,4.732-1.791l4.264-.654-3.987-.218C21.388,671.251,15.69,673.638,17.957,674.645Zm1.592,30.718a7.3,7.3,0,0,0,3.147-.757c2.71-1.372,16.017-2.607,29.686-2.756,6.939-.076,12.34-0.4,12-0.716-0.979-.921-27.176-0.242-33.8.876a74.365,74.365,0,0,0-9.249,2.133C19.555,704.757,18.753,705.306,19.549,705.363Zm105.292,9.091c3.24-.1,2.64-0.279-3.165-0.95-9.757-1.125-21.515-1.589-20.81-.82,0.318,0.347,3.146.895,6.286,1.218h0A122.974,122.974,0,0,0,124.841,714.454Zm21.506-50.608c-4.544.832,10.747,0.555,15.982-.289,3.176-.511,2.263-0.61-4.378-0.472A105.375,105.375,0,0,0,146.347,663.846Zm18.443,82.365a1.58,1.58,0,0,0-1.528-.113c-0.644.24-.461,0.438,0.467,0.507C164.569,746.667,165.046,746.49,164.79,746.211Zm-4.969-.223c-4.062-.6-13.014-1.08-12.65-0.682a24.829,24.829,0,0,0,5.716,1.029C157.906,746.887,163.9,746.588,159.821,745.988Z" transform="translate(0 -298)"/>
  <path id="Shape_1_copy" data-name="Shape 1 copy" class="cls-1" d="M877.253,395.377c-1.535-.048-2.169.1-1.407,0.329a6.418,6.418,0,0,0,2.792.088C879.413,395.614,878.789,395.426,877.253,395.377Zm5.019-.352a1.579,1.579,0,0,0,1.528.113c0.644-.24.461-0.439-0.467-0.508C882.493,394.568,882.015,394.746,882.272,395.025Zm166.718-79.167a0.818,0.818,0,0,0-.78-0.84,0.815,0.815,0,0,0-.05,1.629A0.817,0.817,0,0,0,1048.99,315.858ZM545.083,307.8a11.123,11.123,0,0,0,3.59.114c0.994-.163.191-0.347-1.784-0.41S544.1,307.577,545.083,307.8Zm-70.288.206c0.774-.181.151-0.368-1.385-0.417s-2.169.1-1.407,0.328A6.433,6.433,0,0,0,474.8,308.008Zm-11.944-1.181a11.13,11.13,0,0,0,3.591.114c0.993-.162.19-0.347-1.785-0.41S461.87,306.6,462.851,306.827Zm262.714-2.97c6.747,0.14,9.7-.015,7.532-0.392-3.863-.672-17.6-0.834-18.245-0.216C714.635,303.457,719.456,303.731,725.565,303.857ZM538.675,308.4c0.775-.18.151-0.368-1.385-0.417s-2.169.1-1.407,0.329A6.418,6.418,0,0,0,538.675,308.4Zm-18.39.2a4.479,4.479,0,0,0,2.393.106c0.782-.182.346-0.378-0.97-0.436S519.752,308.366,520.285,308.606ZM199.477,399.359c5.273-.076,18.389-0.026,29.147.112s22.437,0.177,25.953.085,14.122-.16,23.565-0.152c17.389,0.014,22.583-.072,31.962-0.529,2.86-.139,11.2-0.44,18.526-0.67s13.809-.568,14.4-0.753,7.906-.512,16.259-0.725,18.608-.636,22.79-0.939,13.181-.748,20-0.988,17.072-.654,22.79-0.92,21.36-.529,34.759-0.584,26.52-.15,29.157-0.21,20.959,0.181,40.715.534c50.247,0.9,71.869.458,95.1-1.938,4.847-.5,18.176-1.553,29.621-2.34s21.352-1.565,22.016-1.729,4.265-.406,8-0.538,14.352-.539,23.588-0.9,20.209-.752,24.385-0.86,13.169-.37,19.984-0.581,16.854-.077,22.31.3,10.127,0.376,10.382,0a5.073,5.073,0,0,1,2.276-1.2c1.386-.394,1.8-0.192,1.771.856-0.033,1.081.426,1.275,2.169,0.913,1.216-.253,11.012-0.364,21.771-0.248s22.98,0.029,27.16-.194,13.341-.119,20.358.233,18.593,0.835,25.724,1.074,12.955,0.758,12.943,1.153,7.762,0.83,17.718.971c15.42,0.218,17.582.4,16.53,1.382a11.27,11.27,0,0,1-4.027,1.843c-1.549.392-2.235,0.764-1.525,0.826a40.784,40.784,0,0,0,7.465-1.727c5.265-1.572,7.665-1.8,16.321-1.525,18.788,0.587,66.885-.9,67.665-2.091,2.46-3.792,3.55-4.865,6.25-6.165,3.66-1.765,3.88-2.493,1.81-6.2-1.81-3.25-3.01-3.975-9.06-5.434a30.576,30.576,0,0,1-6.32-2.125c-1-.625-6.44-1.132-15.063-1.405-10.658-.338-13.564-0.663-13.825-1.545s0.405-.979,3.139-0.464c2.518,0.474,3.149.41,2.3-.234a7.7,7.7,0,0,0-3.6-.978,5.67,5.67,0,0,1-3.271-1c-0.527-.572-5.345-1.063-12.948-1.32-9.98-.338-12.029-0.606-11.652-1.524,0.521-1.265-1.161-1.566-2.354-.421-0.434.415-5.281,0.841-10.771,0.946-7.639.146-9.7-.022-8.757-0.714s0.258-.82-3.109-0.526c-5.012.439-20.805-.982-20.778-1.869,0.01-.33,4.067-0.78,9.016-1,9.429-.421,12.961-0.424,31.538-0.033,11.265,0.238,11.363.224,11.229-1.591l-0.134-1.831,25.973-.552c29.152-.619,39.442-1.609,43.442-4.182,1.46-.939,2.05-1.53,1.3-1.313-6.12,1.779-15.13,2.869-27.1,3.278l-14.8.5c-13.289.451-55.891-1.33-62.649-2.619-6.27-1.195-10.821-1.65-20.889-2.089l-6.2-.271,0.395-3.044c0.347-2.678.674-3.064,2.715-3.209a54.565,54.565,0,0,1,9.225,1.192c4.782,0.939,7.168,1.1,7.761.535,0.521-.5,4.605-0.626,10.435-0.324,6.278,0.326,9.587.2,9.6-.358a1.243,1.243,0,0,0-1.37-.9c-0.768-.027-10.681-0.433-22.03-0.9l-20.635-.852-1.868-3.933c-1.67-3.517-2.3-4.07-5.936-5.212-4.074-1.28-17.415-2.612-38.332-3.828-13.6-.79-21.277-1.9-21.634-3.127-0.177-.6,2.145-1.036,6.776-1.258,8.609-.414,29.006.516,28.5,1.3s3.337,1.589,4.155.877c1.2-1.042,14.12-1.868,24.248-1.55,5.485,0.172,15.73.084,22.767-.195s24.474-.488,38.749-0.465,26.943-.042,28.151-0.143c3.52-.3,3.406-1.035-0.284-1.837-4.846-1.054-43.39-1.931-49.54-1.127a101.291,101.291,0,0,1-13.042.413,102.5,102.5,0,0,0-10.729.1c-5.855.736-51.932-.254-52.91-1.136-1.051-.948-16.628-1.869-21.491-1.271-2.8.344-3,.227-2.944-1.674,0.034-1.124.332-2.065,0.662-2.09,4.087-.313,11.572-0.322,31.76-0.039,23.416,0.328,28.225.065,25.818-1.412-1.128-.693-14.737-2.673-22.891-3.332h0c-8.82-.712-58.155-2.126-57.892-1.659,0.15,0.265-7.144.247-16.207-.04-24.822-.786-45.266-0.442-47.882.806-2.47,1.178-21.223,2.56-39.808,2.933-3.516.071-12.151,0.383-19.188,0.693s-13.334.528-13.991,0.483-5.521.308-10.806,0.784c-16,1.439-29.3,2.664-35.64,3.284-3.3.323-9.6,0.68-14,.793s-13.035.564-19.2,1c-16.893,1.2-34.915,1.287-84.27.4-4.555-.081-22-2.759-24.79-3.8-2.036-.764-6.714-1.4-11.623-1.576-4.519-.164-8.5-0.49-8.849-0.725a40.511,40.511,0,0,0-6.887-1.086c-3.44-.363-6.438-0.934-6.664-1.271-0.648-.966-4.663-2.751-6.3-2.8a1.935,1.935,0,0,1-1.776-1.015c-0.217-.74-3-0.833-11.835-0.4-10.51.521-42.045,0.885-45.891,0.53-9.66-.891-25.039-3.262-23.45-3.614,1.105-.245,7.932-0.479,15.17-0.519s13.356-.28,13.594-0.532c0.636-.673-31.428-0.568-37.521.123-2.865.324-9.166,0.686-14,.8-9.868.239-23.473,1.052-32.237,1.925a99.815,99.815,0,0,1-10.73.428,78.919,78.919,0,0,0-10.165.5c-2.9.363-7.622,0.956-10.488,1.316s-8.813.907-13.215,1.212-10.348.835-13.213,1.176-8.992.879-13.614,1.2-10.389.871-12.815,1.231-6.753.772-9.612,0.915-12.038.587-20.4,0.988-17.362,1.021-20.008,1.377-9.664.677-15.595,0.712c-14.437.086-22.381,0.6-22.406,1.446-0.042,1.373-4.574,2.827-10.082,3.233-3.082.228-7.208,0.528-9.169,0.668-3.8.271-5.484,0.946-2.6,1.037,0.95,0.03,1.717.421,1.7,0.869s-1.461.769-3.217,0.714c-2.238-.071-3.2.247-3.227,1.065a2.386,2.386,0,0,1-1.848,1.682,5.04,5.04,0,0,0-2.315,1.259c-0.277.41-4.424,0.991-9.216,1.291s-9.085.838-9.539,1.195-4.429.955-8.833,1.331c-12.157,1.038-16.65,1.95-18.735,3.805-1.514,1.346-3.554,1.807-10.052,2.269-6.3.449-8.1,0.842-7.939,1.734a8.473,8.473,0,0,1-.307,3.024c-0.451,1.621-1.023,1.857-4.3,1.769-5.328-.141-9.656.888-11.779,2.8a6.483,6.483,0,0,1-3.845,1.577c-2.683-.085-7.1,1.364-7.127,2.34-0.038,1.252-5.263,2.932-7.252,2.333S0.084,351.111.008,353.6c-0.047,1.536,2.96,2.782,4.3,1.78,1.168-.875,13.145-1.323,13.6-0.508,0.2,0.358-1.1,2.173-2.888,4.033-3.523,3.66-3.69,5.711-.293,3.59,2.338-1.46,5.24-1.674,23.768-1.752,11.318-.047,12.634.082,11.712,1.146a6.708,6.708,0,0,1-3.11,1.66c-1.14.254-1.925,0.622-1.744,0.818s1.69,0.018,3.355-.395c3.5-.868,4.9-0.048,5.4,3.165,0.59,3.782-1.6,5.12-9.57,5.845-3.964.36-7.847,0.977-8.627,1.37-1.642.827-1.93,2.259-.471,2.344,1.871,0.108-2.16,2.351-4.114,2.289-1.634-.052-1.789.136-0.984,1.191a5.16,5.16,0,0,0,3.451,1.341c4.59,0.162,8.16,1.219,8.981,2.658,2.264,3.968-2.715,9.318-10.009,10.753l-4.065.8,2.588,1.014a18.921,18.921,0,0,1,4.513,2.66c1.674,1.432,2.939,1.641,9.7,1.6,19.932-.12,30.056-0.438,38.555-1.211,5.176-.471,25.471-0.7,46.337-0.526C168.448,399.581,182.687,399.6,199.477,399.359Zm741.438-48.9c7.222,0.848,14.834,1.66,16.916,1.8s3.775,0.609,3.762,1.03c-0.034,1.124-38.122-2.12-50.185-4.274C903.719,347.646,926.39,348.751,940.915,350.458ZM906.4,356.171c1.6-.984,4.021-0.908,3.989.127-0.013.448-1.191,0.772-2.617,0.719C905.8,356.946,905.472,356.742,906.4,356.171Zm-135.021-5.324a13.943,13.943,0,0,1-3.989-.137h0c-0.975-.224.022-0.347,2.215-0.271S772.6,350.7,771.378,350.847Zm58.6-40.3c1.861,0.059,1.932.18,0.765,1.3-1.273,1.222-2.885.882-2.84-.6C827.913,310.828,828.847,310.513,829.975,310.548Zm-45.6.62c33.68-.232,40.772.17,42.851,2.429,1.344,1.459-68.951,1.058-71.118-.406C754.951,312.409,771,311.261,784.376,311.168ZM701.7,350.65c0.627-.6,4.267-0.688,23.99-0.566h0c7.465,0.046,18.966.063,25.555,0.036,6.736-.027,11.075.217,9.911,0.558-1.138.333-11.753,0.751-23.588,0.93s-24.692.48-28.57,0.67C702.557,352.593,700.218,352.071,701.7,350.65Zm-14.086.219c0.813,0.026,3.643-.115,6.288-0.313,3.211-.24,4.985-0.048,5.338.577,0.34,0.6-.271.949-1.716,0.972-1.235.02-4.313,0.092-6.841,0.161-2.6.07-4.586-.217-4.572-0.66S686.8,350.843,687.613,350.869Zm-10.68.477c3.593-.813,7.608-0.686,7.58.24-0.014.466-2.154,0.7-5.008,0.56C675.538,351.943,675.013,351.78,676.933,351.346Zm-58.9,6.457c0.031-1,5.855-1.462,7.782-.614,0.9,0.4.217,0.6-1.925,0.57a18.473,18.473,0,0,0-4.605.406c-0.7.25-1.266,0.087-1.252-.362h0Zm-3.591-.081c1.755,0.065,2.374.251,1.375,0.415a8.556,8.556,0,0,1-3.191-.118h0C611.873,357.791,612.689,357.657,614.445,357.722ZM556.7,359.183c2.3,0.1,12.644-.2,22.981-0.659h0c10.337-.463,21-0.962,23.693-1.11,2.836-.156,5.094.075,5.361,0.549,0.419,0.743-9.232,2.055-18.331,2.492-28.084,1.35-37.971,1.149-37.913-.77C552.5,359.309,554.4,359.082,556.7,359.183Zm-28.778.133c7.592-.077,15.664-0.253,17.938-0.391,4.361-.264,6.6,1.082,2.816,1.695-4.565.74-35.57,0.4-35.061-.385C513.89,359.807,520.329,359.393,527.92,359.316Zm-81.252.38c1.316,0.058,1.752.254,0.97,0.436a4.479,4.479,0,0,1-2.393-.106C444.711,359.786,445.352,359.638,446.668,359.7Zm-137.245-.462h0c0.453-.436,6.729-0.774,13.946-0.753,15.117,0.044,13.655.983-3.128,2.009C309.914,361.121,307.72,360.867,309.423,359.234ZM994.265,355.7c0.014-.448-0.715-0.838-1.618-0.867s-1.432.322-1.175,0.778a2.1,2.1,0,0,0,1.619.867A1.029,1.029,0,0,0,994.265,355.7Zm-3.645,7.755a4.476,4.476,0,0,0,2.392.106c0.783-.182.347-0.378-0.969-0.436S990.086,363.21,990.62,363.45Zm55.42,18.905c-1.71-.762-2.06-0.694-2.55.5-0.26.626-2.39,1.432-4.73,1.791l-4.27.654,3.99,0.218C1042.61,385.749,1048.31,383.362,1046.04,382.355Zm-1.59-30.718a7.347,7.347,0,0,0-3.15.757c-2.71,1.372-16.01,2.607-29.68,2.756-6.94.076-12.341,0.4-12,.716,0.983,0.921,27.173.242,33.8-.876a74.633,74.633,0,0,0,9.25-2.133C1044.45,352.243,1045.25,351.694,1044.45,351.637Zm-105.291-9.091c-3.24.1-2.64,0.279,3.165,0.95,9.757,1.125,21.515,1.589,20.81.82-0.318-.347-3.146-0.895-6.286-1.218h0A122.974,122.974,0,0,0,939.159,342.546Zm-21.506,50.608c4.544-.832-10.747-0.555-15.982.289-3.176.511-2.263,0.61,4.378,0.472A105.375,105.375,0,0,0,917.653,393.154ZM899.21,310.789a1.58,1.58,0,0,0,1.528.113c0.644-.24.461-0.438-0.467-0.507C899.431,310.333,898.954,310.51,899.21,310.789Zm4.969,0.223c4.062,0.6,13.014,1.08,12.65.682a24.829,24.829,0,0,0-5.716-1.029C906.094,310.113,900.1,310.412,904.179,311.012Z" transform="translate(0 -298)"/>
  <path class="cls-1" d="M392.356,498.686c6.633-1.255,16.04-3.039,20.905-3.964s13-2.07,18.091-2.545c12.1-1.13,11.5-1.058,24.523-2.95l11.257-1.635-6.835-.581h0a107.243,107.243,0,0,0-33.09,2.312c-6.187,1.324-14.932,2.916-19.432,3.538-11.747,1.623-33.291,6.21-33.989,7.236C372.768,501.594,379.812,501.058,392.356,498.686ZM445.171,465.7h0c0.642-.371.451-0.647-0.486-0.7-0.847-.05-1.322.225-1.055,0.611A1.2,1.2,0,0,0,445.171,465.7ZM597.2,477.244a1.2,1.2,0,0,0,1.541.092h0c0.642-.371.451-0.647-0.486-0.7C597.411,476.583,596.936,476.857,597.2,477.244ZM466.73,483c7.3-.9,18.875-1.945,25.729-2.321,22.229-1.219,38.657-2,55.881-2.655,26.529-1.011,33.429-1.563,32.969-2.64a1.478,1.478,0,0,1,1.034-1.673c1.621-.744,44.451-1.737,77.088-1.787,11.57-.018,21.611-0.351,22.312-0.74,1.94-1.077-1.741-4.835-5.205-5.313h0c-1.521-.209-18.506-0.3-37.742-0.2-37.778.2-75.74,2.026-106.135,5.1-5.97.6-14.267,1.1-18.438,1.1a108.681,108.681,0,0,0-14.473,1.133c-3.789.621-11.943,1.692-18.121,2.38s-11.44,1.738-11.694,2.332c-0.55,1.288-10.085,3.41-15.467,3.442-2.852.018-3.819,0.466-3.819,1.768C450.649,485.04,450.21,485.038,466.73,483Zm6.1,2.939c-0.848-.05-1.322.225-1.055,0.611a1.2,1.2,0,0,0,1.541.092h0C473.954,486.271,473.764,486,472.827,485.939ZM480,511.733c-1.769-.013-2.588.215-1.819,0.506a6.122,6.122,0,0,0,3.216.023h0C482.394,511.985,481.765,511.746,480,511.733ZM921,503.866c0.449,0.4.817-.085,0.817-1.082,0-2.044-.483-2.345-1.172-0.731A1.7,1.7,0,0,0,921,503.866Zm76.985,45.56a3.244,3.244,0,0,0,2.412.044h0c0.78-.3.34-0.556-0.99-0.579S997.443,549.108,997.988,549.426ZM958.957,557.6h0c0.641-.372.451-0.647-0.486-0.7-0.848-.051-1.322.224-1.055,0.611A1.2,1.2,0,0,0,958.957,557.6Zm12.714,0.367c-3.317.1-5.559,0.458-4.983,0.792,0.788,0.457.688,1.035-.4,2.33-1.376,1.635-1.368,1.678.158,0.843,1.6-.874,6.69-1.668,24.72-3.857,5.194-.631,10.076-1.682,10.856-2.336,1.29-1.084,1.29-1.192.06-1.225a9.028,9.028,0,0,0-3.52,1.153C996.6,556.746,988.256,557.46,971.671,557.968ZM373.058,594.324c-1.768-.013-2.587.215-1.818,0.506a6.122,6.122,0,0,0,3.216.023h0C375.456,594.576,374.827,594.337,373.058,594.324ZM95.9,556.589c7.182,0.437,14.068,2.284,11.256,3.018-0.884.231-2.816,0.871-4.293,1.423-2.307.862-2.477,1.066-1.206,1.446a17.363,17.363,0,0,0,3.757.485c1.454,0.028,2.153.32,1.933,0.807-0.247.545-2.516,0.746-7.907,0.7-4.4-.036-7.786.2-8.1,0.567-0.653.765,5.3,3.146,9.076,3.632a40.032,40.032,0,0,1,5.895,1.375c2.674,0.863,2.961,1.117,1.809,1.607-2.539,1.08-1.522,1.87,1.848,1.438,3.587-.461,4.614.626,1.206,1.276-2.186.417-2.365,0.711-1.251,2.049,0.5,0.605.311,1.117-.614,1.631-0.742.412-1.13,0.915-.864,1.117,0.416,0.316,12.645,1.189,24.841,1.774,6.654,0.319,13.7,1.169,14.136,1.705a3.071,3.071,0,0,0,1.945.531c1.888,0,2.663.938,1.754,1.966q11.888-.178,23.764-1.114c0.533-.064,1.067-0.146,1.6-0.212,9.619-.372,21.7-1.084,29.25-1.814,3.337-.322,10.063-0.79,14.947-1.039s12.332-.652,16.552-0.895,16.924-.665,28.234-0.939c23.735-.574,40.093-1.45,53.287-2.853,5.913-.63,15.083-0.458,25.154.469,10.2,0.94,15.865,1.04,15.9.282,0.028-.648,1.587-1.088,3.465-0.98l3.416,0.2-2.649-1.361c-1.457-.749-2.462-1.6-2.233-1.894,0.942-1.205,31.267-.127,62.12,2.21,18.107,1.371,34.2,2.294,35.761,2.051s11.708-.183,22.549.133c34.466,1,37.652.895,39.666-1.335,0.993-1.1,2.307-1.955,2.921-1.9s6.1-.215,12.187-0.6,17.416-.734,25.171-0.78c23.944-.141,42.7-0.737,52.835-1.678,5.338-.5,14.209-1.051,19.716-1.233s10.322-.573,10.7-0.869,10.727,0.116,22.992.917c22.882,1.492,58.3,1.363,113.405-.416,4.328-.14,47.464-0.059,67.258.125,7.553,0.07,47.125,2.6,94.8,6.049,26.02,1.885,35.163,1.721,41.115-.74,5.75-2.376,10.388-2.735,11.734-.907,0.641,0.87,1.443,1.225,1.783.788s-0.243-1.847-1.3-3.134-2.5-3.178-3.2-4.2c-2.745-3.964-5.914-5.676-12.841-6.936-3.956-.719-10.884-1.968-15.394-2.775s-8.365-1.906-8.564-2.443c-0.619-1.669,4.4-2.158,8.742-.852,5.083,1.528,29.4,3.963,29.446,2.949,0.076-1.764-18.446-6.208-33.891-8.132-9.255-1.154-23.121-3.3-30.812-4.763-15.9-3.03-41.14-5.414-108.116-10.209-25.73-1.843-46.764-3.766-46.743-4.274,0.06-1.41,6.629-1.823,15.911-1,5.37,0.475,8.2.309,7.915-.465-0.252-.68-4.128-1.531-8.893-1.953-6.32-.56-8.348-1.1-8.057-2.145,1.29-4.634,25.024-5.035,36.886-.622,6.374,2.371,10.843,3.194,36.768,6.776,5.947,0.821,11.935,1.933,13.308,2.47,2.107,0.824,2.6.589,3.16-1.512,0.607-2.275,1.105-2.417,5.791-1.649,6.974,1.143,6.564-.259-0.543-1.853-3.149-.707-6.145-1.854-6.657-2.549-1.539-2.091-3.538-2.476-28.224-5.43-24.013-2.874-28.564-4.037-23.171-5.923,2.08-.728-3.39-1.354-20.465-2.344-32.644-1.893-70.358-5.1-70.7-6.013-0.461-1.233,2.994-1.868,8.185-1.5,3.981,0.278,4.486.109,2.9-.972-2.057-1.406-12.228-1.438-14.942-.048-0.906.464-5.642,1.027-10.526,1.251-8.718.4-8.937,0.351-12.167-2.782-2.993-2.9-4.783-3.472-19.871-6.325-16.493-3.119-37.03-7.941-39.283-9.225-0.648-.37,5.7.138,14.112,1.127s15.825,1.375,16.478.855c0.751-.6-2.05-1.294-7.635-1.9-4.851-.524-15.849-1.9-24.44-3.057h0c-22.078-2.972-36.627-4.137-37.462-3-0.416.567,0.551,0.807,2.307,0.573,1.663-.222,3.194.055,3.4,0.615,0.622,1.679-4.69,1.7-25.349.09-10.808-.841-19.936-1.31-20.282-1.041s-5.249.278-10.895,0.021c-13.815-.631-35.888-0.516-50.17.261-6.439.351-15.511,0.588-20.161,0.527a100.838,100.838,0,0,0-10.482.245c-1.116.2-9.468,0.519-18.558,0.715s-17.8.481-19.36,0.631-11.193.836-21.412,1.524-23.129,1.65-28.688,2.136-13.743,1.15-18.187,1.475c-9.358.685-27.649,2.8-32.381,3.75-3.22.645-3.455,1.069-2.637,4.76,0.349,1.574-.751,2.13-6.318,3.2a65.6,65.6,0,0,1-10.363,1.216,12.963,12.963,0,0,0-4.861.64c-0.681.393-5.428,1.22-10.55,1.837s-10.956,1.44-12.966,1.829a78.557,78.557,0,0,1-9.039.957c-3.816.178-5.547,0.771-5.945,2.034-0.851,2.7-.2,3.023,4.055,2.007a54.768,54.768,0,0,1,8.349-1.142c2.442-.116,6.446-0.514,8.9-0.885,16.485-2.49,16.838-2.461,15.239,1.291-1.151,2.7-5.141,3.843-13.851,3.967-3.768.053-9.038,0.376-11.71,0.716s-9.94.738-16.149,0.882-14.741.461-18.96,0.7-17.467.927-29.44,1.522-22.344,1.538-23.047,2.1c-0.866.689,0.284,0.941,3.565,0.781,2.664-.13,9.017-0.36,14.119-0.513s13.269-.418,18.15-0.59,17.938-.36,29.017-0.419,25.413-.412,31.853-0.787,13.888-.765,16.55-0.87c6.769-.265,19.77-1.814,33.6-4,6.468-1.023,13.766-2.167,16.219-2.542s8.477-1.388,13.387-2.253c9.595-1.689,27.178-3.679,40.876-4.624,4.666-.322,9.575-0.686,10.909-0.809s6.593-.178,11.686-0.123a101.68,101.68,0,0,0,13.317-.6c2.231-.385,10.582-0.7,18.557-0.691s16.457-.024,18.849-0.065,5.011,0.514,5.818,1.234c1.058,0.944,2.151.889,3.918-.2,2.187-1.343,2.443-1.312,2.375.289-0.054,1.276.228,1.488,0.976,0.732,0.579-.585,3.666-0.722,6.86-0.305s5.827,0.32,5.849-.216a1.176,1.176,0,0,0-.958-1.155c-0.785-.142-0.782-0.286.017-0.673,0.558-.271,2.05.718,3.315,2.2,2.027,2.372,3.321,2.765,10.947,3.324,23.02,1.689,41.944,3.82,41.906,4.718-0.043,1.009-6.5,1.06-37.874.3-9.516-.232-22.381-0.315-28.589-0.186s-19.266.325-29.018,0.436c-25.486.292-26.853,0.312-32.646,0.486-2.883.086-8.7,0.381-12.916,0.654s-11.09.478-15.266,0.454-8.223.376-8.994,0.889-1.547.7-1.723,0.406c-0.311-.509-4.177-0.321-26.1,1.27-5.778.419-13.776,0.962-17.773,1.207s-11.1.949-15.775,1.565c-28.136,3.709-37.083,4.331-69.886,4.856-31.958.512-51.4,1.471-79.512,3.919-5.114.445-12.744,0.842-16.954,0.882s-9.023.238-10.693,0.44l-14.988-.416a1.321,1.321,0,0,0-1.179.974c-0.4.012-.779,0.028-1.208,0.028-2.679,0-4.676.24-4.438,0.534,0.611,0.751-3.982,1.23-15.616,1.629-5.527.19-12.221,0.621-14.874,0.957s-5.745.684-6.869,0.771a11,11,0,0,0-3.216.731c-0.824.4,0.379,0.679,4.054,0.931,3.892,0.266,4.767.479,3.426,0.833-3.491.922-.911,1.468,6.033,1.275,4.877-.135,7.639.062,9.034,0.647,1.106,0.462,1.636.845,1.178,0.85a1.045,1.045,0,0,0-.833,1.155c0,0.975.458,1.1,3.044,0.837,1.97-.2,3.044-0.067,3.044.381,0,0.421-1.55.691-3.965,0.691-3.5,0-3.994.162-4.221,1.375-0.251,1.344-.521,1.379-11.748,1.545-7.183.106-11.31,0.393-11.008,0.764a4.058,4.058,0,0,0,2.445.594c1.08,0,1.963.266,1.963,0.59,0,1.017-2.652,1.668-7.236,1.775a66.48,66.48,0,0,0-6.834.487l-2.412.384,2.807,0.726,2.807,0.727-1.933.786c-1.545.628-2.8,0.638-6.263,0.05-4.324-.735-6.664-0.278-6.664,1.3C77,554.141,86.019,555.987,95.9,556.589Zm508.545-40.236c-0.678.309-1.211,0.056-1.185-.563a1.111,1.111,0,0,1,1.252-1.018,1.228,1.228,0,0,1,1.184.564A2.241,2.241,0,0,1,604.441,516.353Zm58.031-.748c2.648,0.242,3.626.546,2.172,0.676a14.917,14.917,0,0,1-4.815-.437h0C658.635,515.471,659.824,515.358,662.472,515.605ZM628.8,483.127a1.1,1.1,0,0,1,.754,1.232,0.983,0.983,0,0,1-.852,1.09,1.094,1.094,0,0,1-.753-1.232A0.983,0.983,0,0,1,628.8,483.127ZM518.95,504.5a4.657,4.657,0,0,1-2.809-.249c-0.76-.361-0.118-0.544,1.427-0.407S519.734,504.276,518.95,504.5Zm16.14-1.821c-1.286-.048-2.066.435-1.812,1.121,0.246,0.663-.3,1.139-1.206,1.059a1.546,1.546,0,0,1-1.611-1.117c0.022-.535-3.85-1.113-8.605-1.287-5.7-.208-8.22-0.658-7.4-1.32,1.479-1.189,18.483-.616,21.088.71C537.205,502.69,537.169,502.756,535.09,502.679Zm16.352,4.956c-10.342-.664-14.646-1.32-14.607-2.228,0.031-.738,1.683-1.213,3.873-1.114l3.819,0.173-3.177-1.06-3.177-1.06,3.062-.667a6.677,6.677,0,0,1,5.494,1.051c3.389,2.391,27.444,4.718,34.384,3.325h0c3.913-.785,13.488-0.274,36.972,1.974,17.43,1.669,32.584,3.342,33.675,3.718,1.867,0.645,1.887.738,0.336,1.581-1.216.66-.856,0.827,1.368,0.635,3.485-.3,4.9,1.635,1.544,2.115a64.709,64.709,0,0,1-8.264.042c-3.315-.153-6.514.237-7.109,0.867s-6.511,1.17-13.147,1.2c-11.8.056-19.694-1.238-18.8-3.08,0.248-.508-0.708-1.314-2.124-1.792C602.252,512.2,570.345,508.849,551.442,507.635Zm-426.2,65.147c1.769,0,3.216.275,3.216,0.611s-1.447.611-3.216,0.611-3.216-.275-3.216-0.611S123.475,572.782,125.244,572.782Zm-14.071-3.7h0c2.114-.356,7.638-0.3,7.638.074,0,0.712-4.072,1.066-6.323.548C111.323,569.439,110.731,569.159,111.173,569.085Z" transform="translate(0 -298)"/>
</svg>
