<?xml version="1.0" encoding="UTF-8" standalone="no"?>
<svg
   xmlns:dc="http://purl.org/dc/elements/1.1/"
   xmlns:cc="http://creativecommons.org/ns#"
   xmlns:rdf="http://www.w3.org/1999/02/22-rdf-syntax-ns#"
   xmlns:svg="http://www.w3.org/2000/svg"
   xmlns="http://www.w3.org/2000/svg"
   xmlns:sodipodi="http://sodipodi.sourceforge.net/DTD/sodipodi-0.dtd"
   xmlns:inkscape="http://www.inkscape.org/namespaces/inkscape"
   width="250"
   height="30"
   viewBox="0 0 66.145836 7.9375002"
   version="1.1"
   id="svg41"
   inkscape:version="1.0 (4035a4fb49, 2020-05-01)"
   sodipodi:docname="menubg.svg">
  <defs
     id="defs35" />
  <sodipodi:namedview
     id="base"
     pagecolor="#ffffff"
     bordercolor="#666666"
     borderopacity="1.0"
     inkscape:pageopacity="0.0"
     inkscape:pageshadow="2"
     inkscape:zoom="1.979899"
     inkscape:cx="110.18457"
     inkscape:cy="148.17123"
     inkscape:document-units="mm"
     inkscape:current-layer="layer1"
     inkscape:document-rotation="0"
     showgrid="false"
     inkscape:window-width="1050"
     inkscape:window-height="974"
     inkscape:window-x="1519"
     inkscape:window-y="643"
     inkscape:window-maximized="0"
     units="px" />
  <metadata
     id="metadata38">
    <rdf:RDF>
      <cc:Work
         rdf:about="">
        <dc:format>image/svg+xml</dc:format>
        <dc:type
           rdf:resource="http://purl.org/dc/dcmitype/StillImage" />
        <dc:title></dc:title>
      </cc:Work>
    </rdf:RDF>
  </metadata>
  <g
     inkscape:label="Layer 1"
     inkscape:groupmode="layer"
     id="layer1">
    <path
       style="fill:#000000;fill-rule:evenodd;stroke-width:0.0666115"
       d="m 55.024211,7.3118646 c -0.09647,-0.00338 -0.13631,0.00707 -0.08842,0.023233 a 0.40331969,0.45315981 0 0 0 0.175449,0.0062 c 0.0487,-0.012713 0.0096,-0.025985 -0.08703,-0.029441 z m 0.315406,-0.024856 a 0.09922746,0.11148946 0 0 0 0.09601,0.00797 c 0.04046,-0.016938 0.02898,-0.031001 -0.02935,-0.035867 -0.05278,-0.00437 -0.08283,0.00817 -0.06669,0.02789 z M 65.8165,1.6972129 a 0.05140472,0.05775705 0 0 0 -0.04901,-0.059308 0.05121619,0.05754523 0 0 0 -0.0033,0.1150187 0.05134189,0.05768644 0 0 0 0.05216,-0.055707 z M 34.15,1.1282589 a 0.69899108,0.78536879 0 0 0 0.225602,0.00804 c 0.06246,-0.011505 0.012,-0.0245 -0.112117,-0.02895 -0.124119,-0.00445 -0.175261,0.00515 -0.11348,0.020903 z m -4.417035,0.014546 c 0.04864,-0.012781 0.0096,-0.025983 -0.08703,-0.029443 -0.09653,-0.00346 -0.13631,0.00707 -0.08842,0.023158 a 0.40426232,0.45421893 0 0 0 0.175759,0.00642 z M 28.98238,1.0594169 a 0.69943098,0.78586299 0 0 0 0.225666,0.00804 c 0.06241,-0.011432 0.01201,-0.0245 -0.112179,-0.028948 -0.12412,-0.00445 -0.175137,0.00501 -0.113481,0.02104 z M 45.491842,0.84971218 c 0.423995,0.009889 0.609568,-0.001056 0.473324,-0.0276787 -0.242755,-0.0474476 -1.106015,-0.0588872 -1.14655,-0.0152515 -0.01366,0.0148282 0.289324,0.034175 0.673226,0.0430701 z M 33.747307,1.1706237 c 0.0487,-0.01271 0.0096,-0.025983 -0.08703,-0.029443 -0.09653,-0.00346 -0.136311,0.00707 -0.08842,0.02323 a 0.40331969,0.45315981 0 0 0 0.175448,0.00621 z m -1.155661,0.01412 a 0.28146911,0.31625161 0 0 0 0.150385,0.00749 c 0.04915,-0.012851 0.02176,-0.026689 -0.06095,-0.030784 -0.08271,-0.0041 -0.12292,0.00678 -0.08943,0.023724 z M 12.431443,7.5930245 c 0.331367,-0.00535 1.155602,-0.00182 1.831655,0.0079 0.676053,0.00973 1.409985,0.012511 1.630937,0.00601 0.220953,-0.00652 0.887454,-0.011288 1.480872,-0.010721 1.092759,0.00105 1.419159,-0.0051 2.008553,-0.037353 0.179733,-0.00981 0.703829,-0.031067 1.164209,-0.047307 0.460382,-0.016235 0.867787,-0.040105 0.904925,-0.05317 0.03715,-0.013051 0.496829,-0.036154 1.021749,-0.051187 0.524919,-0.015047 1.169362,-0.044907 1.432166,-0.066301 0.262804,-0.021393 0.828319,-0.052818 1.256839,-0.069759 0.42852,-0.016939 1.072835,-0.046178 1.432169,-0.064963 0.35933,-0.018777 1.342303,-0.037353 2.184322,-0.041235 0.84202,-0.00392 1.666567,-0.010589 1.832283,-0.014838 0.16572,-0.00424 1.317105,0.012765 2.55861,0.037706 3.157619,0.063547 4.516391,0.032339 5.976273,-0.1368373 0.304593,-0.035306 1.142212,-0.1096536 1.861439,-0.1652228 0.719231,-0.055571 1.341804,-0.1105012 1.383534,-0.1220792 0.04173,-0.011577 0.268016,-0.028666 0.50273,-0.037986 0.234714,-0.00932 0.901909,-0.038058 1.482317,-0.063548 0.58041,-0.025482 1.269976,-0.053098 1.532402,-0.060724 0.262429,-0.00762 0.827567,-0.026122 1.255832,-0.041026 0.42827,-0.014891 1.05914,-0.00541 1.402006,0.021185 0.342867,0.026617 0.636401,0.026553 0.652423,0 a 0.31879724,0.35819252 0 0 1 0.143037,-0.084729 c 0.08709,-0.027817 0.11311,-0.013567 0.111288,0.060437 -0.0021,0.076327 0.02678,0.090026 0.13631,0.064467 0.07642,-0.017871 0.692015,-0.025692 1.36813,-0.017506 0.676121,0.00819 1.444112,0.00209 1.706792,-0.013698 0.262677,-0.015744 0.838371,-0.00842 1.279334,0.016443 0.440964,0.024857 1.168421,0.058957 1.616547,0.07583 0.448128,0.016886 0.814116,0.053523 0.813363,0.081412 -7.33e-4,0.02789 0.487778,0.058604 1.113436,0.068559 0.969021,0.015379 1.104887,0.028242 1.038776,0.09758 a 0.70822886,0.7957481 0 0 1 -0.253066,0.1301304 c -0.09734,0.027675 -0.14045,0.053946 -0.09583,0.058323 A 2.5629465,2.8796617 0 0 0 58.666921,6.9968769 C 58.997783,6.88588 59.148605,6.8697832 59.692563,6.8892 60.873238,6.930649 63.895748,6.825652 63.944762,6.741559 64.09935,6.4738103 64.167854,6.3980484 64.337527,6.3062571 64.56753,6.1816351 64.581355,6.1302337 64.451278,5.8684907 64.337507,5.6390029 64.262108,5.5878127 63.881912,5.4847964 A 1.9214558,2.158899 0 0 1 63.484753,5.3347612 c -0.06283,-0.04413 -0.404703,-0.079929 -0.946585,-0.099205 -0.669771,-0.023865 -0.852389,-0.046811 -0.868792,-0.109089 -0.01635,-0.062275 0.02546,-0.069124 0.197263,-0.032761 0.15825,0.033466 0.197884,0.028954 0.144548,-0.016521 a 0.48388305,0.5436788 0 0 0 -0.226234,-0.06904 0.35631389,0.40034531 0 0 1 -0.205564,-0.070607 c -0.03312,-0.040387 -0.335891,-0.075056 -0.813677,-0.093202 -0.627164,-0.023866 -0.755925,-0.042787 -0.732233,-0.1076059 0.03275,-0.089319 -0.07296,-0.1105712 -0.147942,-0.029729 -0.0273,0.029306 -0.33187,0.05938 -0.676871,0.066795 -0.480048,0.010308 -0.609566,-0.00157 -0.550311,-0.050412 0.05928,-0.048858 0.01615,-0.057899 -0.195379,-0.037138 -0.314965,0.030995 -1.307425,-0.069336 -1.30573,-0.1319657 7.32e-4,-0.023298 0.255579,-0.055075 0.566581,-0.070607 0.59254,-0.029729 0.814496,-0.029937 1.981913,-0.00235 0.707914,0.016801 0.714072,0.015817 0.70565,-0.1123366 l -0.0085,-0.1292826 1.632192,-0.038978 c 1.831968,-0.043707 2.478611,-0.1136078 2.729977,-0.2952812 0.09175,-0.066302 0.128818,-0.1080293 0.08169,-0.092708 -0.384589,0.1256105 -0.950796,0.202573 -1.703017,0.2314516 L 62.213801,4.079503 C 61.378681,4.1113385 58.701488,3.985588 58.276802,3.8945746 57.882781,3.8101987 57.596789,3.778072 56.964093,3.7470751 l -0.389616,-0.019137 0.02483,-0.2149299 c 0.02179,-0.1890875 0.04234,-0.2163419 0.170606,-0.2265801 a 3.4289714,3.8527057 0 0 1 0.579716,0.084163 c 0.300511,0.066301 0.450453,0.077668 0.487717,0.037776 0.03274,-0.035306 0.28939,-0.044203 0.655758,-0.022874 0.39452,0.023017 0.602467,0.014122 0.603284,-0.025281 a 0.07811255,0.0877653 0 0 0 -0.0861,-0.063541 c -0.04826,-0.00196 -0.671204,-0.030568 -1.384402,-0.063545 L 56.329142,3.17297 56.211749,2.8952703 C 56.106824,2.6469449 56.067232,2.6078993 55.838738,2.5272652 55.582722,2.4368873 54.744347,2.3428379 53.429884,2.2569788 52.575232,2.2011994 52.092794,2.1228247 52.07036,2.0361886 c -0.01117,-0.042361 0.1348,-0.07315 0.425816,-0.088825 0.541005,-0.029233 1.822795,0.036433 1.790997,0.09179 -0.03179,0.055354 0.209704,0.1121957 0.261107,0.061924 0.07542,-0.073573 0.88733,-0.1318947 1.523791,-0.1094412 0.344692,0.012145 0.988507,0.00593 1.430726,-0.013768 0.442216,-0.019698 1.537993,-0.034457 2.435062,-0.032834 0.89707,0.00163 1.693151,-0.00293 1.769066,-0.010094 0.221203,-0.021185 0.214038,-0.073079 -0.0178,-0.1297059 -0.304534,-0.074421 -2.726716,-0.1363433 -3.113193,-0.079576 a 6.3653247,7.1519179 0 0 1 -0.819584,0.029162 6.4413006,7.2372833 0 0 0 -0.674235,0.00707 c -0.367934,0.051964 -3.263506,-0.017937 -3.324964,-0.080211 -0.06604,-0.066936 -1.044938,-0.1319657 -1.350535,-0.089742 -0.175966,0.024288 -0.188529,0.016025 -0.185011,-0.1181976 0.0021,-0.079363 0.02084,-0.1458046 0.0416,-0.1475701 0.256838,-0.022099 0.727211,-0.022735 1.995861,-0.00275 1.47151,0.023158 1.773715,0.00459 1.622456,-0.099699 -0.07089,-0.048931 -0.9261,-0.188734 -1.438515,-0.23526443 v 0 c -0.554267,-0.0502677 -3.654577,-0.15010793 -3.63805,-0.11713457 0.0096,0.0187101 -0.448943,0.0174403 -1.018479,-0.002822 -1.55986,-0.0554973 -2.844605,-0.0312085 -3.008997,0.0569094 -0.155228,0.0831759 -1.333694,0.1807554 -2.501613,0.2070924 -0.220952,0.00501 -0.763594,0.027043 -1.205812,0.048931 -0.442216,0.021886 -0.837933,0.03728 -0.879223,0.034104 -0.04129,-0.00318 -0.346946,0.021748 -0.679067,0.055357 -1.005475,0.1016039 -1.841273,0.1880987 -2.239692,0.2318749 -0.207374,0.022809 -0.60328,0.048011 -0.879785,0.055994 -0.276505,0.00797 -0.819145,0.039819 -1.206564,0.070607 -1.06159,0.08473 -2.194128,0.090871 -5.295693,0.028242 C 31.6038,1.6518612 30.50752,1.4628044 30.332194,1.3893017 30.204245,1.3353577 29.910272,1.290451 29.601783,1.2780238 29.317799,1.2664468 29.067626,1.2434255 29.045694,1.226833 A 2.5457905,2.860386 0 0 0 28.612824,1.150144 C 28.396649,1.124513 28.208247,1.084196 28.194047,1.060402 28.153327,0.9921949 27.901015,0.8661602 27.798141,0.86270036 a 0.1215992,0.13662577 0 0 1 -0.11162,-0.0716665 c -0.01366,-0.0522533 -0.188528,-0.0588196 -0.743731,-0.0282467 -0.66047,0.0367859 -2.642192,0.0624881 -2.883881,0.0374227 -0.607052,-0.0629114 -1.5735,-0.23032254 -1.473643,-0.2551762 0.06944,-0.0172992 0.498462,-0.0338206 0.953312,-0.0366449 0.45485,-0.002823 0.839317,-0.0197677 0.854273,-0.0375638 0.03996,-0.0475188 -1.974996,-0.0401047 -2.357891,0.008682 -0.180044,0.0228766 -0.576012,0.0484365 -0.879788,0.0564862 -0.620123,0.0168759 -1.475089,0.0742797 -2.025835,0.13591992 a 6.2725698,7.0477008 0 0 1 -0.674294,0.0302197 4.9594245,5.5722838 0 0 0 -0.638789,0.0353038 c -0.182241,0.025631 -0.478983,0.0675012 -0.659087,0.0929199 -0.180104,0.0254188 -0.553826,0.0640413 -0.830457,0.0855769 -0.27663,0.0215344 -0.650289,0.0589571 -0.83033,0.0830348 -0.180044,0.0240793 -0.565075,0.0620649 -0.855531,0.0847292 -0.290456,0.022665 -0.652865,0.061499 -0.805319,0.086918 -0.152454,0.025419 -0.424372,0.054508 -0.604038,0.064605 -0.179664,0.010094 -0.756492,0.041447 -1.281976,0.069761 -0.525483,0.028313 -1.091061,0.072089 -1.257341,0.097226 -0.16628,0.025137 -0.607305,0.047802 -0.9800202,0.050274 -0.9072493,0.00607 -1.4064658,0.042363 -1.4080369,0.1020982 -0.00263,0.096944 -0.2874391,0.1996075 -0.6335727,0.2282745 -0.1936783,0.016097 -0.4529647,0.037281 -0.5761978,0.047163 -0.2387995,0.019129 -0.3446255,0.066794 -0.1633883,0.07322 0.059701,0.00209 0.1078997,0.029729 0.1068317,0.061356 -0.00107,0.031633 -0.091812,0.054299 -0.2021621,0.050412 -0.1406402,-0.00502 -0.2010941,0.01744 -0.2027913,0.075198 A 0.14994093,0.16846983 0 0 1 6.5167045,2.2089659 0.31672346,0.35586248 0 0 0 6.3712253,2.2978602 c -0.017406,0.028947 -0.2780124,0.069972 -0.5791509,0.091155 -0.3011289,0.021189 -0.5709093,0.059175 -0.5994399,0.08438 -0.028531,0.025209 -0.2783266,0.067432 -0.5550828,0.093979 C 3.8735824,2.640664 3.5912334,2.7050581 3.4602079,2.8360352 3.3650655,2.9310733 3.236868,2.9636231 2.8285198,2.996244 2.4326162,3.0279495 2.3195005,3.0556956 2.329618,3.1186776 A 0.53245992,0.59825851 0 0 1 2.310328,3.3321953 C 2.2819839,3.4466508 2.2460415,3.4633137 2.0401084,3.4571006 1.7052858,3.4471516 1.4333059,3.5197997 1.2998928,3.6548015 A 0.40740439,0.45774928 0 0 1 1.0582663,3.7661494 C 0.88966167,3.7601394 0.61208891,3.8624594 0.61039254,3.9313721 0.60804063,4.0197731 0.27965509,4.1383936 0.15466311,4.0960992 0.02967,4.0538082 -0.09877911,4.1863362 -0.10355565,4.3620782 -0.10652544,4.4705319 0.08245678,4.5585087 0.16666541,4.4877597 0.24006004,4.4259787 0.9927225,4.3943457 1.0213162,4.4518927 1.033879,4.4771717 0.95219228,4.6053231 0.83982832,4.7366531 0.61843598,4.9950771 0.60794157,5.1398933 0.82142869,4.9901345 0.96835249,4.8870469 1.1507208,4.871937 2.3150558,4.8664298 c 0.7112449,-0.00333 0.7939448,0.0058 0.7360056,0.080918 A 0.42154386,0.47363603 0 0 1 2.8556237,5.0645552 c -0.071643,0.017935 -0.1209718,0.043915 -0.1095968,0.057755 0.011363,0.01384 0.1062025,0.0013 0.2108356,-0.02789 0.2199459,-0.061291 0.3079254,-0.00338 0.3393464,0.2234737 0.037076,0.2670388 -0.1005482,0.3615116 -0.6013983,0.4127023 -0.2491052,0.025417 -0.4931203,0.068982 -0.5421365,0.096732 -0.1031869,0.058395 -0.1212864,0.1595028 -0.029592,0.1655053 0.1175776,0.00762 -0.1357392,0.1659964 -0.2585323,0.1616206 -0.102684,-0.00365 -0.112424,0.00962 -0.06184,0.084092 a 0.32426448,0.3643354 0 0 0 0.2168669,0.094687 c 0.2884451,0.011445 0.5127909,0.08607 0.5643842,0.1876739 0.1422732,0.2801712 -0.1706157,0.6579229 -0.6289858,0.7592439 l -0.255452,0.056491 0.1626349,0.071595 a 1.1890327,1.3359671 0 0 1 0.2836052,0.1878162 c 0.1051986,0.101112 0.1846938,0.1158678 0.6095672,0.1129723 1.2525662,-0.00848 1.8887783,-0.030923 2.4228718,-0.085504 0.3252702,-0.033258 1.6006476,-0.049426 2.9119077,-0.037138 2.3914511,0.022327 3.2862581,0.023643 4.3413731,0.00663 z M 59.024856,4.1403101 c 0.453844,0.059876 0.932199,0.1172088 1.063033,0.1270937 0.130847,0.00988 0.237233,0.043002 0.236416,0.072726 -0.0021,0.079362 -2.395665,-0.1496887 -3.153726,-0.3017773 -0.483192,-0.096662 0.941498,-0.018642 1.854277,0.1018872 z m -2.16899,0.4033103 c 0.100547,-0.069477 0.25269,-0.064109 0.250676,0.00897 -7.34e-4,0.031633 -0.07484,0.054506 -0.164458,0.050764 -0.123913,-0.00502 -0.144527,-0.019417 -0.08622,-0.059731 z M 48.370883,4.1677055 a 0.87620541,0.9844823 0 0 1 -0.250675,-0.00968 v 0 c -0.06129,-0.015817 0.0014,-0.024498 0.139187,-0.019138 0.137801,0.00534 0.188218,0.018425 0.111412,0.02881 z m 3.682541,-2.8454876 c 0.116958,0.00418 0.121408,0.012709 0.04808,0.09179 -0.08,0.086283 -0.181305,0.062276 -0.17847,-0.042362 3.67e-4,-0.029584 0.05926,-0.051826 0.130142,-0.049354 z m -2.865593,0.043776 c 2.116512,-0.016382 2.56219,0.011999 2.692838,0.1715058 0.08446,0.1030171 -4.333017,0.074703 -4.469193,-0.028665 -0.07296,-0.055147 0.935589,-0.1362022 1.776165,-0.142769 z M 43.992118,4.153795 c 0.03939,-0.042361 0.268149,-0.048579 1.507583,-0.039963 v 0 c 0.46911,0.00326 1.191857,0.00444 1.605924,0.00255 0.423302,-0.00196 0.695972,0.015321 0.622826,0.039401 -0.0715,0.023513 -0.738581,0.053026 -1.482315,0.065666 C 45.502399,4.234083 44.69444,4.25534 44.450739,4.268756 44.045976,4.290997 43.898987,4.254141 43.992118,4.1538072 Z M 43.106929,4.16926 c 0.0511,0.00182 0.228931,-0.00812 0.395148,-0.022098 0.201797,-0.016945 0.313268,-0.00338 0.335452,0.040739 0.02136,0.042362 -0.01697,0.067007 -0.107832,0.068629 -0.07761,0.00144 -0.271037,0.00652 -0.429899,0.011372 -0.163382,0.00496 -0.288193,-0.015321 -0.287316,-0.046602 0.0011,-0.03128 0.0433,-0.053876 0.09439,-0.052035 z m -0.671152,0.033682 c 0.225792,-0.057403 0.4781,-0.048434 0.476341,0.016945 -0.0011,0.032906 -0.135359,0.049426 -0.31471,0.039539 C 42.348047,4.24509 42.315057,4.233584 42.435723,4.202943 Z m -3.701394,0.455913 c 0.0019,-0.070607 0.367939,-0.1032284 0.489036,-0.043354 0.05654,0.028242 0.01366,0.042362 -0.120974,0.040243 A 1.1608795,1.3043348 0 0 0 38.813059,4.68441 c -0.04398,0.017651 -0.07956,0.00612 -0.07869,-0.025562 z m -0.225667,-0.00574 c 0.110294,0.00458 0.149183,0.017722 0.08641,0.029306 a 0.5376758,0.60411893 0 0 1 -0.200533,-0.00833 v 0 c -0.04738,-0.016097 0.0039,-0.025562 0.114247,-0.02097 z m -3.628681,0.1031571 c 0.144527,0.00707 0.794572,-0.014122 1.444171,-0.046532 v 0 c 0.649595,-0.03269 1.319684,-0.067924 1.488915,-0.078375 0.178221,-0.01101 0.320118,0.00528 0.336895,0.038762 0.02633,0.05246 -0.580158,0.1450987 -1.151957,0.1759546 -1.764852,0.095319 -2.386171,0.081129 -2.382525,-0.054372 3.66e-4,-0.026547 0.119959,-0.042578 0.264501,-0.035442 z m -1.808468,0.00939 c 0.477098,-0.00541 0.984357,-0.017864 1.127262,-0.027609 0.27405,-0.018642 0.414755,0.076397 0.176959,0.1196796 -0.286873,0.052251 -2.235287,0.028242 -2.203302,-0.027186 0.01739,-0.030219 0.421926,-0.059452 0.898956,-0.064891 z m -5.106035,0.026834 c 0.08271,0.00411 0.110107,0.017937 0.06095,0.030784 a 0.28146911,0.31625161 0 0 1 -0.150383,-0.00747 c -0.0337,-0.016945 0.0066,-0.027394 0.0893,-0.023017 z M 19.34079,4.7598694 v 0 c 0.02846,-0.030785 0.422864,-0.054651 0.876396,-0.05317 0.949979,0.00314 0.858106,0.069409 -0.19658,0.1418505 -0.649092,0.044555 -0.78697,0.026617 -0.67995,-0.088683 z M 62.377474,4.5103648 c 0.0011,-0.031633 -0.04494,-0.05917 -0.101684,-0.06122 -0.05676,-0.00203 -0.08999,0.022737 -0.07385,0.054931 a 0.13196811,0.14827603 0 0 0 0.101746,0.06122 0.06466438,0.07265527 0 0 0 0.07379,-0.054931 z m -0.229055,0.5475623 a 0.2812806,0.31603977 0 0 0 0.150322,0.0075 c 0.0492,-0.012848 0.02179,-0.026689 -0.06089,-0.030785 -0.08271,-0.00411 -0.122982,0.00601 -0.08943,0.022946 z m 3.482697,1.3348368 c -0.107458,-0.053803 -0.129458,-0.049002 -0.160236,0.035306 -0.01635,0.044202 -0.150197,0.1011099 -0.297243,0.1264588 l -0.268335,0.046171 0.250738,0.015379 c 0.259537,0.015953 0.617735,-0.1525824 0.475087,-0.2236828 z m -0.0999,-2.168925 a 0.46169982,0.51875431 0 0 0 -0.197945,0.053452 c -0.170296,0.096874 -1.006098,0.1840744 -1.865146,0.1945949 -0.436127,0.00534 -0.775535,0.028242 -0.754101,0.050555 0.06176,0.065029 1.707599,0.017082 2.12405,-0.06185 a 4.6900839,5.2696596 0 0 0 0.581292,-0.1506067 c 0.111867,-0.043707 0.162119,-0.082469 0.111867,-0.086493 z m -6.616701,-0.641894 c -0.203618,0.00707 -0.165908,0.019698 0.198898,0.067077 0.613148,0.079434 1.352041,0.1121958 1.307739,0.0579 -0.01987,-0.024499 -0.197697,-0.063197 -0.395027,-0.086001 v 0 A 7.7279267,8.6829034 0 0 0 58.914511,3.58159 Z m -1.351484,3.5733103 c 0.285555,-0.058747 -0.675361,-0.039188 -1.00434,0.020408 -0.199582,0.036081 -0.14221,0.043068 0.275121,0.033329 a 6.6219714,7.4402799 0 0 0 0.729219,-0.054089 z M 56.404035,1.3393049 a 0.09929029,0.11156007 0 0 0 0.09601,0.00798 c 0.04048,-0.016947 0.02898,-0.030926 -0.02933,-0.035798 -0.05278,-0.00438 -0.08277,0.00813 -0.06667,0.027818 z m 0.312259,0.015744 c 0.255264,0.042365 0.817828,0.076256 0.794954,0.048154 a 1.560303,1.753117 0 0 0 -0.359207,-0.072655 c -0.315402,-0.038976 -0.692081,-0.017864 -0.435747,0.024501 z"
       class="cls-1"
       data-name="Shape 1 copy"
       id="Shape_1_copy" />
    <path
       id="path68"
       d="m 12.431483,7.5930132 c 0.458758,-0.7930727 0.855536,-1.625391 1.376273,-2.3792185 0.0086,-0.012417 0.885741,-0.2374477 0.935444,-0.2672694 0.387575,-0.2325449 0.744144,-0.5153176 1.202712,-0.668174 0.447087,-0.1490286 1.288964,-0.265566 1.737252,-0.534539 0.543868,-0.3263207 -0.0084,-0.2199211 0.534539,-0.4009041 0.588809,-0.1962695 2.757439,-0.57815 3.193744,-0.1353396 0.12876,0.1306803 -0.481038,0.9248129 -0.654602,0.9896184 -0.07003,0.026149 -0.155922,-0.030286 -0.224268,0 -0.133151,0.059002 -0.197505,0.6411674 -0.38761,0.7409698 -0.0205,0.010761 -0.916681,0.1336347 -0.736818,0.1336347 0.907372,0 1.867994,-0.6163887 2.70966,-0.6163887"
       style="fill:none;stroke:#000000;stroke-width:0.264583px;stroke-linecap:butt;stroke-linejoin:miter;stroke-opacity:1" />
    <path
       id="path70"
       d="m 19.34079,4.7598695 c 0.366268,0.1060809 0.740789,0.186976 1.098803,0.3182432 0.05915,0.021685 0.07756,0.1049194 0.133635,0.1336349 0.03777,0.019344 0.147813,-0.037151 0.127306,0 -0.120549,0.2183868 -0.446131,0.070498 -0.594408,0.1199237 -0.188988,0.062996 -0.385734,0.3997167 -0.534539,0.2672697 -0.127556,-0.1135351 0.207516,-0.3008281 0.369519,-0.3548288 0.30765,-0.1025501 0.616382,-0.2092584 0.935443,-0.2672696 0.175306,-0.031874 0.363223,0.048979 0.534539,0 0.05387,-0.015399 -0.06349,-0.1102008 -0.118839,-0.1188471 -0.639055,-0.099825 -1.30075,0.00143 -1.951459,-0.098126 z"
       style="fill:none;stroke:#000000;stroke-width:0.264583px;stroke-linecap:butt;stroke-linejoin:miter;stroke-opacity:1" />
    <path
       id="path72"
       d="m 33.071567,4.765662 c 0.577628,0.308243 1.378513,0.8278291 2.086054,0.952591 1.299012,0.2290561 2.596325,-0.049348 3.877204,0.1336347 0.76222,0.1088887 3.084457,0.3490592 3.733485,0.1336347 0.504593,-0.1674831 0.776399,-0.6789812 1.20105,-0.9337712 0.333748,-0.2002481 0.723686,-0.1711966 1.06575,-0.3992404 0.424584,-0.2830555 0.735552,-0.5839203 1.202713,-0.8018084 0.03456,-0.016116 -0.07772,-0.010446 -0.114384,0 -0.322488,0.091869 -0.699363,0.2262968 -1.017302,0.265679 -0.757097,0.093778 -1.511805,0.1336347 -2.281579,0.1336347 -0.877144,0 -3.253644,-0.1888496 -4.009043,0 -0.932961,0.2332402 0.875419,0.1336346 -0.935442,0.1336346 -0.880822,0 -2.234097,-0.2488528 -2.993962,0.1244018 -0.30498,0.14981 -0.989782,0.4675214 -1.336347,0.4009044 -0.163412,-0.031411 -0.312332,-0.1566659 -0.478197,-0.1432949 -0.402556,0.032452 -0.784344,0.1935922 -1.179513,0.2769296 -0.04359,0.00919 -0.177001,0.010181 -0.133635,0 0.435501,-0.1022483 0.875432,-0.1846197 1.313148,-0.2769296"
       style="fill:none;stroke:#000000;stroke-width:0.264583px;stroke-linecap:butt;stroke-linejoin:miter;stroke-opacity:1" />
    <path
       id="path74"
       d="M 45.499699,4.1138318 C 33.071567,4.765662 34.880034,4.7562719 34.880034,4.7562719 l 3.514558,-0.082181 0.418468,0.010319 z"
       style="fill:none;stroke:#000000;stroke-width:0.264583px;stroke-linecap:butt;stroke-linejoin:miter;stroke-opacity:1" />
    <path
       d="m 48.728989,3.6870298 c -0.159393,0.03306 -0.310449,0.094463 -0.464566,0.144989 -0.03788,0.012417 -0.128206,0.017222 -0.107907,0.051527 0.0088,0.014928 0.02947,0.018288 0.04421,0.027432 0.02561,-0.3805311 -0.643572,-0.2526914 -0.863039,-0.2447245 -0.05655,0.0022 -0.113106,0.00441 -0.169661,0.00661 -0.0076,7.938e-4 -0.03025,2.416e-4 -0.02289,0.00235 0.03538,0.010118 0.07525,0.038496 0.108154,0.022037 0.04283,-0.021423 0.164717,-0.2375929 0.168373,-0.2755622 0.0061,-0.063281 -0.02797,-0.1240332 -0.04195,-0.1860497 C 47.322403,3.1834424 47.275697,3.116427 47.207789,3.0790519 46.845069,2.879423 46.139444,2.9467544 45.733732,2.9651345 c -0.707311,0.033469 -2.536915,0.6928739 -1.819505,1.2817089 0.044,0.036112 0.175606,0.09171 0.22951,0.1159981 0.02764,0.014266 0.05528,0.02853 0.08292,0.042795 0.0028,0.00482 0.01397,0.015679 0.0085,0.014467 -0.920012,-0.2041761 2.383078,-1.3995776 0.966848,-0.7408828 -0.145661,0.067747 -0.293335,0.1310732 -0.440004,0.19661 -0.70538,0.3083832 -1.440916,0.5410348 -2.198312,0.6773286 -0.785363,0.1022283 -1.579978,0.087166 -2.370281,0.086303 -0.685172,0.019743 -1.369221,0.06547 -2.054148,0.09229 -0.605962,0.02403 -1.212384,0.026083 -1.818722,0.026729 C 35.690389,4.777909 35.063514,4.729626 34.440042,4.6420563 33.75447,4.5173473 33.078216,4.3479608 32.398644,4.1946814 32.567401,4.4852701 32.005685,3.9692738 32.048272,4.0840998 c 0.02392,0.064512 0.205703,0.096407 0.152101,0.1395481 -0.452408,0.3641307 -1.0277,0.5565244 -1.475843,0.9258911 -0.102748,0.084686 0.264856,-0.028352 0.397706,-0.037275 0.177091,-0.011896 0.354584,-0.016775 0.531876,-0.025162 1.23793,-0.037688 2.476325,-0.035771 3.713848,0.010454 0.928256,0.052991 1.858716,0.065415 2.786705,0.1210747 0.686988,0.055385 1.373807,0.139207 2.053307,0.2554753 0.946661,0.1658625 1.900431,0.2943772 2.856696,0.3897021 1.202901,0.093059 2.40942,0.1064525 3.611729,0.2092034 0.678995,0.040758 1.344215,0.1907363 2.017966,0.2714927 0.589182,-0.3318661 1.217382,-0.6024198 1.767546,-0.9955985 0.06016,-0.042997 -0.0501,-0.1409134 -0.0919,-0.2019181 C 50.195778,4.8926667 49.792268,4.6964718 49.529698,4.5535736 49.273063,4.4141903 48.996404,4.3197848 48.727494,4.2083275 c -0.06829,-0.028305 -0.137948,-0.054033 -0.203369,-0.088456 -0.02796,-0.014711 -0.106381,-0.054795 -0.07495,-0.057991 0.03427,-0.00348 0.05755,0.037889 0.08633,0.056834 -2.513902,1.4857552 -1.872951,0.9374475 -0.985647,0.9259043 0.378031,-0.00492 0.755957,0.022791 1.132453,0.051896 0.629219,0.044888 1.250646,0.1443636 1.868242,0.269104 0.47824,0.104385 0.94824,0.2435043 1.422103,0.3665046 -0.578225,-0.2948533 0.124953,0.069238 1.523633,-1.1107283 0.06026,-0.050839 -0.157673,0.00722 -0.23648,0.00482 -0.316634,-0.00965 -0.619013,-0.068089 -0.926824,-0.1373855 -0.336378,-0.093475 -0.674942,-0.1845535 -1.018466,-0.2485265 -0.03559,-0.00663 -0.317479,-0.054139 -0.359688,-0.0306 -0.593423,0.3309376 -1.164675,0.700152 -1.747012,1.050228 0.04789,0.2921024 0.314256,0.3715237 0.538459,0.5022975 0.0016,0.00196 0.0032,0.00389 0.0049,0.00584 0.540793,-0.3678603 1.118846,-0.6861656 1.622375,-1.1035805 0.05503,-0.045614 -0.133739,-0.05048 -0.20097,-0.074733 -0.112421,-0.040555 -0.225144,-0.080265 -0.337968,-0.1196863 -0.658937,-0.2302399 -0.19694,-0.0616 -0.856565,-0.3081899 0,0 -1.563608,1.0515476 -1.563608,1.0515476 v 0 c 0.380056,0.146472 0.764196,0.2840503 1.132901,0.4579593 0.0557,0.026273 0.109381,0.1123686 0.164304,0.084503 0.601869,-0.3053654 1.163018,-0.6855809 1.732936,-1.0470886 0.01315,-0.00834 -0.02453,-0.019193 -0.03681,-0.028789 -0.04546,-0.024471 -0.395721,-0.1844577 -0.400323,-0.1965851 -0.0029,-0.00755 0.01611,-0.00108 0.02416,-0.00164 -0.547672,0.3071643 -1.095341,0.6143288 -1.64301,0.9214932 0.0414,-0.02 0.07901,-0.051531 0.124193,-0.059995 0.0754,-0.014123 0.153636,-0.013229 0.230037,-0.00636 0.346048,0.031116 0.67954,0.1487176 1.010936,0.2437541 0.308316,0.077522 0.612304,0.1411139 0.927833,0.1817973 0.07285,0.00939 0.154606,0.059902 0.218987,0.02454 C 53.78669,4.7510289 54.175241,5.1253342 53.583022,4.6160256 53.094442,4.5206814 52.61838,4.382998 52.136494,4.2603181 51.506156,4.1366643 50.873948,4.032291 50.231698,3.9912327 c -0.376597,-0.036366 -0.751573,-0.055539 -1.129382,-0.074432 -0.03582,-0.0018 -0.507145,-0.032731 -0.550391,-0.010255 -0.622173,0.3233669 -1.212213,0.7051307 -1.818317,1.0576962 0.01733,0.052905 0.01908,0.1138217 0.052,0.1587143 0.04883,0.066586 0.297934,0.1462468 0.338059,0.1616837 0.266072,0.1023644 0.538014,0.1921912 0.790868,0.3256547 1.314,0.6845588 0.125373,0.8207412 2.370244,-0.4193691 C 50.029866,5.2158095 49.788558,5.174008 49.534897,5.1409536 49.087637,5.0826717 48.640793,5.0170384 48.189993,4.9918445 46.987602,4.9003113 45.781497,4.882547 44.579471,4.786508 43.638819,4.6891019 42.702075,4.5577923 41.773239,4.3789539 41.089617,4.249725 40.396908,4.1631139 39.703618,4.1074747 c -0.944825,-0.057499 -1.893332,-0.034819 -2.83863,-0.089179 -1.233921,-0.044728 -2.467449,-0.04407 -3.7021,-0.033102 -0.168812,1.902e-4 -0.337622,1.764e-4 -0.506431,5.821e-4 -0.124209,2.91e-4 -0.258408,-0.047323 -0.372626,0.00148 -0.31446,0.1343658 -2.32034,0.633249 -1.866016,1.1967811 0.08661,0.1074309 0.332126,-0.011634 0.399883,0.1071485 0.687327,0.1513094 1.374992,0.3001492 2.063372,0.447008 0.62213,0.1072306 1.248674,0.1812322 1.881425,0.1529027 0.607285,-0.00241 1.214797,-0.00225 1.821844,-0.019952 0.690769,-0.028871 1.379913,-0.083947 2.070632,-0.1139034 0.789114,-8.996e-4 1.579756,0.00333 2.367502,-0.046205 0.782045,-0.1119073 1.533028,-0.3758848 2.264463,-0.6679046 0.140928,-0.059853 0.281662,-0.120165 0.422783,-0.17956 0.111877,-0.047087 0.230465,-0.080285 0.336209,-0.1398831 0.180438,-0.101695 2.019726,-0.5955538 1.900864,-1.3142759 -0.01323,-0.079942 -0.101581,-0.1077415 -0.158612,-0.1369094 -0.03936,-0.018198 -0.143386,-0.071377 -0.194085,-0.078175 -0.0086,-0.00116 -0.01484,0.0091 -0.02225,0.01366 -0.55413,0.3404955 -1.10582,0.6849875 -1.662377,1.0215009 -0.02999,0.018129 0.04982,-0.051819 0.08191,-0.065893 0.05898,-0.025863 0.124101,-0.034446 0.186151,-0.051669 0.485954,-0.043345 0.981725,-0.08307 1.459502,0.043652 -0.01016,0.1510294 -0.151154,0.2259692 -0.17676,0.368732 -0.04867,0.2713363 0.08651,0.3316939 0.307869,0.2941236 0.353531,-0.02187 0.08551,-0.00781 0.446204,-0.019801 0.05438,-0.0018 0.109897,0.00474 0.163079,-0.00673 0.02426,-0.00523 0.05752,-0.068368 0.06029,-0.043702 0.0033,0.02944 0.0024,0.059207 0.0034,0.08881 0.02014,0.049711 0.02923,0.1054697 0.06036,0.1491331 0.14084,0.1975022 0.475713,-0.079186 0.646885,-0.099623 0,0 1.58065,-1.1994751 1.58065,-1.1994751 z"
       id="path76"
       style="fill:#000000;stroke-width:0.264583" />
  </g>
</svg>
